General
Complete name                            : Batman - The Dark Knight Returns - Part 2 (Portable).m4v
Format                                   : MPEG-4
Format profile                           : Base Media / Version 2
Codec ID                                 : mp42
File size                                : 588 MiB
Duration                                 : 1h 15mn
Overall bit rate mode                    : Variable
Overall bit rate                         : 1 085 Kbps
Movie name                               : Batman: The Dark Knight Returns, Part 2
Performer                                : Peter Weller, Ariel Winter, David Selby, Padget Brewster, Michael Emerson, Grey DeLisle, Frank Welker, Dee Bradley Baker, Michael McKean, Mark Valley, Conan O'Brien, James Patrick Stuart, Robin Atkin Downes, Maria Canals-Barrera, Yuri Lowenthal, Gwendoline Yeo, Danny Jacobs, Townsend Coleman, Michael Jackson
Recorded date                            : 2013-01-29
Encoded date                             : UTC 2013-02-02 17:38:08
Tagged date                              : UTC 2013-02-02 22:56:48
Writing application                      : HandBrake 5233svn 2013020201
Cover                                    : Yes
desc                                     : Batman has stopped the reign of terror that The Mutants had cast upon his city.  Now an old foe wants a reunion and the government wants The Man of Steel to put a stop to Batman.

Video #1
ID                                       : 1
Format                                   : AVC
Format/Info                              : Advanced Video Codec
Format profile                           : High@L3.1
Format settings, CABAC                   : Yes
Format settings, ReFrames                : 4 frames
Codec ID                                 : avc1
Codec ID/Info                            : Advanced Video Coding
Duration                                 : 1h 15mn
Bit rate mode                            : Variable
Bit rate                                 : 913 Kbps
Width                                    : 960 pixels
Height                                   : 540 pixels
Display aspect ratio                     : 16:9
Frame rate mode                          : Variable
Frame rate                               : 23.976 fps
Minimum frame rate                       : 23.810 fps
Maximum frame rate                       : 29.970 fps
Color space                              : YUV
Chroma subsampling                       : 4:2:0
Bit depth                                : 8 bits
Scan type                                : Progressive
Bits/(Pixel*Frame)                       : 0.073
Stream size                              : 495 MiB (84%)
Writing library                          : x264 core 129
Encoding settings                        : cabac=1 / ref=4 / deblock=1:0:0 / analyse=0x3:0x133 / me=umh / subme=10 / psy=1 / psy_rd=1.00:0.15 / mixed_ref=1 / me_range=32 / chroma_me=1 / trellis=2 / 8x8dct=1 / cqm=0 / deadzone=21,11 / fast_pskip=1 / chroma_qp_offset=-3 / threads=12 / lookahead_threads=2 / sliced_threads=0 / nr=0 / decimate=1 / interlaced=0 / bluray_compat=0 / constrained_intra=0 / bframes=4 / b_pyramid=2 / b_adapt=2 / b_bias=0 / direct=3 / weightb=1 / open_gop=0 / weightp=2 / keyint=300 / keyint_min=30 / scenecut=40 / intra_refresh=0 / rc_lookahead=60 / rc=crf / mbtree=1 / crf=20.0 / qcomp=0.60 / qpmin=4 / qpmax=69 / qpstep=4 / vbv_maxrate=17500 / vbv_bufsize=17500 / crf_max=0.0 / nal_hrd=none / ip_ratio=1.40 / aq=1:1.00
Encoded date                             : UTC 2013-02-02 17:38:08
Tagged date                              : UTC 2013-02-02 18:23:51
Color primaries                          : BT.709
Transfer characteristics                 : BT.709
Matrix coefficients                      : BT.709

Audio
ID                                       : 2
Format                                   : AAC
Format/Info                              : Advanced Audio Codec
Format profile                           : LC
Codec ID                                 : 40
Duration                                 : 1h 15mn
Bit rate mode                            : Variable
Bit rate                                 : 165 Kbps
Maximum bit rate                         : 279 Kbps
Channel(s)                               : 2 channels
Channel positions                        : Front: L R
Sampling rate                            : 48.0 KHz
Compression mode                         : Lossy
Delay relative to video                  : 83ms
Stream size                              : 89.3 MiB (15%)
Language                                 : English
Encoded date                             : UTC 2013-02-02 17:38:08
Tagged date                              : UTC 2013-02-02 18:23:51
